<svg width="86" height="30" viewBox="0 0 86 30" fill="none" xmlns="http://www.w3.org/2000/svg">
<path d="M42.3274 2.8869C36.4285 2.8869 30.3334 2.13746 24.8456 4.16997C19.9298 5.99065 14.9994 4.22607 10.4997 7.11304C5.99997 10 4.99997 11.5 2.99997 15C2 17.5 1.0351 21.4857 1.91079 23.456C5.08942 30.6079 18.03 28.1472 24.2843 28.1472C35.4042 28.1472 46.5241 28.1472 57.644 28.1472C64.4244 28.1472 75 29.613 81.6615 25.5811C86 20.113 86.6733 13.148 79.5 9.11304C74.6378 6.37804 71.5171 5.7738 65.7835 5.7738C58.74 5.7738 51.6965 5.7738 44.653 5.7738C35.9554 5.7738 24.4628 6.67398 17.7888 0" stroke="#363636" stroke-width="1.5" stroke-linecap="round"/>
</svg>
