<svg width="83" height="35" viewBox="0 0 83 35" fill="none" xmlns="http://www.w3.org/2000/svg">
<path d="M42.6359 5.66072C36.8486 5.66072 31.494 7.10417 25.7154 7.10417C21.866 7.10417 17.5 8 13.7669 9C8 11 4.14468 11.6131 1.65791 17.2083C0.657708 19.4588 1.07936 24.9167 2.21925 26.9115C3.37791 28.9392 7.52175 30.1222 9.59689 30.7607C19 33.6539 21.5 33 30.3665 33.808C37 33.808 48.3429 33.808 54.9453 33.808C60.6161 33.808 66.5 34.5 72.0662 31.6428C77.2647 28.4866 82 27.5476 82 20.5C82 16.1313 81.3523 15.1468 77.9603 13.2388C75.1609 11.6642 73 11.5 69.2996 9.99107C65.5992 8.48214 61.5 8 57.4713 7.10417C48.5458 6.93888 39.0783 8.19952 30.3665 6.02158C24.6336 4.58836 19.2692 2.44277 13.7669 0.608643" stroke="#363636" stroke-width="1.5" stroke-linecap="round"/>
</svg>
