<svg width="74" height="29" viewBox="0 0 74 29" fill="none" xmlns="http://www.w3.org/2000/svg">
<path d="M33.5001 3C26.7609 3 -5.35678 2.28643 2 17C4.04454 21.0891 5.99989 23 10.4999 24.5C14.9999 26 19.4187 27.1957 24.087 27.5177C31.6209 28.0372 39.0481 28.1993 46.6209 28.1993C51.875 28.1993 57.5069 28.6627 62.6592 27.5177C66.2784 25.9788 68.4411 25.059 71.0001 22.5C76.8469 16.6532 64.0001 8 60.0001 7C49.2298 4.30742 47.0004 5.5 36.0001 5.5C30.9185 4.61624 24.5001 5 18.7142 4.02149C16.2258 2.77732 13.1702 2.3901 10.4999 1.5" stroke="#363636" stroke-width="1.5" stroke-linecap="round"/>
</svg>
