							<svg width="114" height="31" viewBox="0 0 114 31" fill="none"
								xmlns="http://www.w3.org/2000/svg">
								<path
									d="M66.1507 7.93893C45.3057 7.93893 24.3099 8.27646 5.20504 16.9605C1.15486 18.8015 -1.97223 21.7501 3.03986 24.9396C13.9232 31.8653 27.6866 29.5907 40.0884 29.5907C54.4962 29.5907 68.904 29.5907 83.3117 29.5907C90.8856 29.5907 98.9349 30.237 106.407 28.7086C108.974 28.1835 113.306 26.9434 113.063 23.6565C112.796 20.0542 105.351 16.3119 102.397 15.1562C89.3841 10.064 75.5749 8.14251 61.9808 5.61337C58.4057 4.94825 55.2285 4.45171 51.7162 3.4482C49.3977 2.78577 46.8674 0.72168 44.499 0.72168"
									stroke="#363636" stroke-width="1.5" stroke-linecap="round" />
							</svg>